<?xml version="1.0" encoding="utf-8"?>
<!-- Generator: Adobe Illustrator 18.0.0, SVG Export Plug-In . SVG Version: 6.00 Build 0)  -->
<!DOCTYPE svg PUBLIC "-//W3C//DTD SVG 1.1//EN" "http://www.w3.org/Graphics/SVG/1.1/DTD/svg11.dtd">
<svg version="1.1" xmlns="http://www.w3.org/2000/svg" xmlns:xlink="http://www.w3.org/1999/xlink" x="0px" y="0px"
	 viewBox="0 0 840 120" enable-background="new 0 0 840 120" xml:space="preserve">
<g id="Layer_1">
	<polygon points="323.1,105.5 309.4,105.5 309.4,68.8 293.6,68.8 293.6,105.5 279.9,105.5 279.9,24.8 264.1,24.8 264.1,105.5 
		264.1,105.5 264.1,120 264.1,120 279.9,120 293.6,120 309.4,120 323.1,120 338.9,120 338.9,105.5 338.9,40.1 323.1,40.1 	"/>
	<polygon points="835.1,40.1 821,40.1 821,24.8 805.2,24.8 805.2,40.1 791.1,40.1 791.1,55.9 805.2,55.9 805.2,120 821,120 
		821,55.9 835.1,55.9 	"/>
	<polygon points="489.6,40.1 479.8,120 481.9,120 495.6,120 541.7,120 541.7,105.5 497.3,105.5 503.3,55.9 541.7,55.9 541.7,40.1 	
		"/>
	<path d="M368.9,40.1L358.5,120h15.8l2.6-22.6h26.5l2.6,22.6h15.8l-10-79.9H368.9z M379,81.6l3-25.2h16.2l3,25.2H379z"/>
	<polygon points="577.6,40.1 577.6,0 561.8,0 561.8,120 577.6,120 577.6,55.9 604.1,55.9 604.1,120 619.9,120 619.9,40.1 	"/>
	<polygon points="457.6,24.3 441.8,24.3 441.8,40.1 427.7,40.1 427.7,55.9 441.8,55.9 441.8,120 457.6,120 457.6,55.9 471.7,55.9 
		471.7,40.1 457.6,40.1 	"/>
	<path d="M681.4,40.1h-26.5h-15.8l0,0v15.8l0,0v49.1V120h15.8h26.5h15.8v-14.9V40.1l0,0H681.4z M655.3,105.1V55.9h26.5v49.1H655.3z"
		/>
	<polygon points="758.6,105.5 732.2,105.5 732.2,56.8 716.4,56.8 716.4,105.5 716.4,120 732.2,120 758.6,120 774.4,120 774.4,120 
		774.4,40.1 758.6,40.1 	"/>
	<g>
		<polygon points="29.6,33.1 20,14.5 5.8,14.5 15.3,33.1 		"/>
		<rect x="10.5" y="42.1" width="19.5" height="13"/>
		<polygon points="4.9,120 18.3,120 28.7,64.2 15.3,64.2 		"/>
		<polygon points="107.8,60.7 107.8,48.2 79.3,48.2 79.3,27.4 99.6,27.4 99.6,14.5 45.1,14.5 45.1,27.4 65.9,27.4 65.9,48.2 
			37.3,48.2 37.3,60.7 64.6,60.7 35.6,120 49.9,120 72.4,74.2 95.3,120 109.6,120 80.6,60.7 		"/>
	</g>
	<g>
		<path d="M227.8,92.2h-45.3v-6.4h36.7V82v-7.3v-6.8v-12v-6.8V38v-0.4h-87.1V38v11.1v6.4v12v7.3v7.7v3.8h37.2v6.4h-46.5v12h46.5V120
			h13.2v-15.4h45.3V92.2z M145,49.1h61.5v6.4H145V49.1z M145,67.5h61.5v7.3H145V67.5z"/>
		<polygon points="149.7,34.2 162.1,34.2 162.1,27.3 189,27.3 189,34.2 201.4,34.2 201.4,27.3 226.1,27.3 226.1,15.8 201.4,15.8 
			201.4,8.5 189,8.5 189,15.8 162.1,15.8 162.1,8.5 149.7,8.5 149.7,15.8 124.9,15.8 124.9,27.3 149.7,27.3 		"/>
	</g>
</g>
<g id="Layer_2" display="none">
</g>
</svg>
