<?xml version="1.0" encoding="UTF-8" standalone="no"?>
<!DOCTYPE svg PUBLIC "-//W3C//DTD SVG 1.1//EN" "http://www.w3.org/Graphics/SVG/1.1/DTD/svg11.dtd">
<svg width="100%" height="100%" viewBox="0 0 840 120" version="1.1" xmlns="http://www.w3.org/2000/svg" xmlns:xlink="http://www.w3.org/1999/xlink" xml:space="preserve" style="fill-rule:evenodd;clip-rule:evenodd;stroke-linejoin:round;stroke-miterlimit:1.41421;">
    <g id="Layer_1">
        <path d="M323.1,105.5L309.4,105.5L309.4,68.8L293.6,68.8L293.6,105.5L279.9,105.5L279.9,24.8L264.1,24.8L264.1,120L338.9,120L338.9,105.5L338.9,40.1L323.1,40.1L323.1,105.5Z" style="fill:rgb(80,227,194);fill-rule:nonzero;"/>
        <path d="M835.1,40.1L821,40.1L821,24.8L805.2,24.8L805.2,40.1L791.1,40.1L791.1,55.9L805.2,55.9L805.2,120L821,120L821,55.9L835.1,55.9L835.1,40.1Z" style="fill:rgb(80,227,194);fill-rule:nonzero;"/>
        <path d="M489.6,40.1L479.8,120L541.7,120L541.7,105.5L497.3,105.5L503.3,55.9L541.7,55.9L541.7,40.1L489.6,40.1Z" style="fill:rgb(80,227,194);fill-rule:nonzero;"/>
        <path d="M368.9,40.1L358.5,120L374.3,120L376.9,97.4L403.4,97.4L406,120L421.8,120L411.8,40.1L368.9,40.1L368.9,40.1ZM379,81.6L382,56.4L398.2,56.4L401.2,81.6L379,81.6Z" style="fill:rgb(80,227,194);fill-rule:nonzero;"/>
        <path d="M577.6,40.1L577.6,0L561.8,0L561.8,120L577.6,120L577.6,55.9L604.1,55.9L604.1,120L619.9,120L619.9,40.1L577.6,40.1Z" style="fill:rgb(80,227,194);fill-rule:nonzero;"/>
        <path d="M457.6,24.3L441.8,24.3L441.8,40.1L427.7,40.1L427.7,55.9L441.8,55.9L441.8,120L457.6,120L457.6,55.9L471.7,55.9L471.7,40.1L457.6,40.1L457.6,24.3Z" style="fill:rgb(80,227,194);fill-rule:nonzero;"/>
        <path d="M681.4,40.1L654.9,40.1L639.1,40.1L639.1,120L697.2,120L697.2,105.1L697.2,40.1L681.4,40.1ZM655.3,105.1L655.3,55.9L681.8,55.9L681.8,105L655.3,105L655.3,105.1Z" style="fill:rgb(80,227,194);fill-rule:nonzero;"/>
        <path d="M758.6,105.5L732.2,105.5L732.2,56.8L716.4,56.8L716.4,120L774.4,120L774.4,40.1L758.6,40.1L758.6,105.5Z" style="fill:rgb(80,227,194);fill-rule:nonzero;"/>
        <g>
            <path d="M29.6,33.1L20,14.5L5.8,14.5L15.3,33.1L29.6,33.1Z" style="fill:rgb(80,227,194);fill-rule:nonzero;"/>
            <rect x="10.5" y="42.1" width="19.5" height="13" style="fill:rgb(80,227,194);"/>
            <path d="M4.9,120L18.3,120L28.7,64.2L15.3,64.2L4.9,120Z" style="fill:rgb(80,227,194);fill-rule:nonzero;"/>
            <path d="M107.8,60.7L107.8,48.2L79.3,48.2L79.3,27.4L99.6,27.4L99.6,14.5L45.1,14.5L45.1,27.4L65.9,27.4L65.9,48.2L37.3,48.2L37.3,60.7L64.6,60.7L35.6,120L49.9,120L72.4,74.2L95.3,120L109.6,120L80.6,60.7L107.8,60.7Z" style="fill:rgb(80,227,194);fill-rule:nonzero;"/>
        </g>
        <g>
            <path d="M227.8,92.2L182.5,92.2L182.5,85.8L219.2,85.8L219.2,82L219.2,74.7L219.2,67.9L219.2,55.9L219.2,49.1L219.2,38L219.2,37.6L132.1,37.6L132.1,86.3L169.3,86.3L169.3,92.7L122.8,92.7L122.8,104.7L169.3,104.7L169.3,120L182.5,120L182.5,104.6L227.8,104.6L227.8,92.2ZM145,49.1L206.5,49.1L206.5,55.5L145,55.5L145,49.1ZM145,67.5L206.5,67.5L206.5,74.8L145,74.8L145,67.5Z" style="fill:rgb(80,227,194);fill-rule:nonzero;"/>
            <path d="M149.7,34.2L162.1,34.2L162.1,27.3L189,27.3L189,34.2L201.4,34.2L201.4,27.3L226.1,27.3L226.1,15.8L201.4,15.8L201.4,8.5L189,8.5L189,15.8L162.1,15.8L162.1,8.5L149.7,8.5L149.7,15.8L124.9,15.8L124.9,27.3L149.7,27.3L149.7,34.2Z" style="fill:rgb(80,227,194);fill-rule:nonzero;"/>
        </g>
    </g>
</svg>
